<?xml version="1.0" encoding="utf-8"?>
<!-- Generator: Adobe Illustrator 26.0.0, SVG Export Plug-In . SVG Version: 6.00 Build 0)  -->
<svg version="1.1" id="Laag_1" xmlns="http://www.w3.org/2000/svg" xmlns:xlink="http://www.w3.org/1999/xlink" x="0px" y="0px"
	 viewBox="0 0 245.4 245.8" style="enable-background:new 0 0 245.4 245.8;" xml:space="preserve">
<style type="text/css">
	.st0{fill:#111124;}
	.st1{fill:#D8D8D8;}
	.st2{fill:#9C9B9B;}
	.st3{fill:#646462;}
</style>
<path class="st0" d="M39.9,245.8c0,0,1.3-46,5.8-56.1c3.9-14,37.4-25.9,46.1-32c7.6-5.8,10.6-8.2,6.7-15c0,0-13.4-22.8-13.4-41.6
	s-3.6-38,35.4-38s33.7,20.2,33.7,37.6s-15.7,40.1-15.7,40.1c-5.4,9.4-2.9,12,6.4,15.8c10.9,4.3,30.6,19.1,36.8,26.4
	c11.6,12.1,11.6,62.9,11.6,62.9H39.9z"/>
<path class="st1" d="M44.6,245.8c0,0,1.3-43.1,5.5-52.6c3.6-13.2,35-24.3,43.2-30c7.1-5.4,10-7.7,6.3-14c0,0-12.6-21.4-12.6-39
	s-3.4-35.7,33.1-35.7s31.6,18.9,31.6,35.3s-14.7,37.6-14.7,37.6c-5.1,8.8-2.7,11.2,6,14.8c10.2,4,28.7,18,34.5,24.8
	c10.9,11.3,10.9,58.9,10.9,58.9H44.6z"/>
<path class="st2" d="M49.4,245.8c0,0,1.2-40.3,5.1-49.1c3.4-12.3,32.7-22.7,40.3-28c6.6-5.1,9.3-7.2,5.9-13.1c0,0-11.8-20-11.8-36.4
	s-3.1-33.3,30.9-33.3s29.5,17.7,29.5,32.9s-13.7,35.1-13.7,35.1c-4.7,8.2-2.5,10.5,5.6,13.8c9.5,3.7,26.8,16.8,32.3,23.2
	c10.2,10.6,10.2,55,10.2,55H49.4z"/>
<path class="st3" d="M54.2,245.8c0,0,1.1-37.4,4.7-45.6c3.1-11.4,30.4-21.1,37.5-26.1c6.2-4.7,8.6-6.6,5.5-12.2
	c0,0-10.9-18.5-10.9-33.8S88,97.2,119.7,97.2s27.4,16.4,27.4,30.6s-12.7,32.6-12.7,32.6c-4.4,7.6-2.3,9.7,5.2,12.8
	c8.9,3.5,24.9,15.6,30,21.5c9.5,9.8,9.5,51.1,9.5,51.1H54.2z"/>
<path class="st0" d="M59.6,245.8c0,0,1-34.2,4.3-41.7c2.9-10.4,27.8-19.3,34.3-23.8c5.6-4.3,7.9-6.1,5-11.1c0,0-10-17-10-30.9
	s-2.7-28.3,26.3-28.3s25,15,25,27.9c0,13-11.6,29.8-11.6,29.8c-4,7-2.1,8.9,4.8,11.7c8.1,3.2,22.7,14.2,27.4,19.7
	c8.6,9,8.6,46.7,8.6,46.7H59.6z"/>
</svg>
