<?xml version="1.0" encoding="utf-8"?>
<!-- Generator: Adobe Illustrator 26.0.0, SVG Export Plug-In . SVG Version: 6.00 Build 0)  -->
<svg version="1.1" id="Laag_1" xmlns="http://www.w3.org/2000/svg" xmlns:xlink="http://www.w3.org/1999/xlink" x="0px" y="0px"
	 viewBox="0 0 245.4 245.8" style="enable-background:new 0 0 245.4 245.8;" xml:space="preserve">
<style type="text/css">
	.st0{fill:#111124;}
	.st1{fill:#F8F7F7;}
	.st2{fill:#D8D8D8;}
	.st3{fill:#BABABA;}
	.st4{fill:#9C9B9B;}
	.st5{fill:#7F7F80;}
	.st6{fill:#646462;}
	.st7{fill:#4A494A;}
	.st8{fill:#3D3D3B;}
</style>
<path class="st0" d="M35.9,245.8c0,0,1.4-48.3,6.1-59c4.1-14.8,39.3-27.3,48.4-33.7c8-6.1,11.2-8.6,7.1-15.7c0,0-14.1-24-14.1-43.7
	s-3.8-40,37.2-40S156,74.9,156,93.2s-16.5,42.1-16.5,42.1c-5.7,9.9-3,12.6,6.7,16.6c11.4,4.5,32.1,20.1,38.7,27.8
	c12.2,12.7,12.2,66.1,12.2,66.1H35.9z"/>
<path class="st1" d="M38.7,245.8c0,0,1.4-46.7,5.9-57c3.9-14.2,37.9-26.3,46.8-32.5c7.7-5.9,10.8-8.3,6.8-15.2
	c0,0-13.6-23.1-13.6-42.2S81,60.4,120.5,60.4s34.2,20.5,34.2,38.1s-15.9,40.7-15.9,40.7c-5.5,9.5-2.9,12.1,6.5,16
	c11,4.3,31,19.4,37.4,26.8c11.8,12.3,11.8,63.8,11.8,63.8H38.7z"/>
<path class="st2" d="M41,245.8c0,0,1.3-45.3,5.7-55.3c3.8-13.8,36.8-25.6,45.4-31.6c7.5-5.7,10.5-8.1,6.6-14.8
	c0,0-13.2-22.5-13.2-41S82,65.7,120.3,65.7s33.2,19.9,33.2,37.1s-15.4,39.5-15.4,39.5c-5.3,9.3-2.8,11.8,6.3,15.6
	c10.7,4.2,30.1,18.9,36.3,26.1c11.5,11.9,11.5,61.9,11.5,61.9H41z"/>
<path class="st3" d="M43.5,245.8c0,0,1.3-43.8,5.5-53.5c3.7-13.4,35.6-24.7,43.9-30.5c7.2-5.5,10.1-7.8,6.4-14.3
	c0,0-12.8-21.7-12.8-39.6s-3.4-36.2,33.7-36.2s32.1,19.2,32.1,35.8s-14.9,38.2-14.9,38.2c-5.1,8.9-2.7,11.4,6.1,15
	c10.4,4,29.1,18.2,35.1,25.2c11.1,11.5,11.1,59.9,11.1,59.9H43.5z"/>
<path class="st4" d="M46,245.8c0,0,1.2-42.3,5.4-51.7c3.6-12.9,34.4-23.9,42.4-29.5c7-5.3,9.8-7.5,6.2-13.8c0,0-12.4-21-12.4-38.3
	s-3.3-35,32.5-35s31,18.6,31,34.6s-14.4,36.9-14.4,36.9c-5,8.6-2.6,11,5.9,14.5c10,3.9,28.1,17.6,33.9,24.3
	c10.7,11.1,10.7,57.8,10.7,57.8H46z"/>
<path class="st5" d="M48.4,245.8c0,0,1.2-40.9,5.2-49.9c3.4-12.5,33.2-23.1,41-28.5c6.7-5.2,9.5-7.3,6-13.3c0,0-11.9-20.3-11.9-37
	S85.4,83.3,120,83.3s30,17.9,30,33.4S136,152.4,136,152.4c-4.8,8.3-2.6,10.6,5.7,14c9.7,3.8,27.2,17,32.8,23.5
	c10.3,10.7,10.3,55.9,10.3,55.9H48.4z"/>
<path class="st6" d="M51,245.8c0,0,1.1-39.3,5-48c3.3-12,31.9-22.2,39.4-27.4c6.5-5,9.1-7,5.7-12.8c0,0-11.5-19.5-11.5-35.5
	s-3.1-32.5,30.2-32.5s28.8,17.2,28.8,32.1c0,14.9-13.4,34.3-13.4,34.3c-4.6,8-2.5,10.2,5.5,13.5c9.3,3.6,26.1,16.4,31.5,22.6
	c9.9,10.3,9.9,53.7,9.9,53.7H51z"/>
<path class="st7" d="M53.7,245.8c0,0,1.1-37.7,4.8-46c3.2-11.5,30.6-21.3,37.8-26.3c6.2-4.8,8.7-6.7,5.5-12.3c0,0-11-18.7-11-34.1
	S87.8,96,119.7,96s27.6,16.5,27.6,30.8s-12.8,32.9-12.8,32.9c-4.4,7.7-2.4,9.8,5.3,12.9c8.9,3.5,25.1,15.7,30.2,21.7
	c9.5,9.9,9.5,51.5,9.5,51.5H53.7z"/>
<path class="st8" d="M56.5,245.8c0,0,1.1-36,4.6-44c3-11,29.3-20.3,36.1-25.1c5.9-4.5,8.3-6.4,5.3-11.7c0,0-10.5-17.9-10.5-32.6
	c0-14.7-2.8-29.8,27.7-29.8s26.4,15.8,26.4,29.5s-12.3,31.4-12.3,31.4c-4.2,7.4-2.3,9.4,5,12.4c8.5,3.3,23.9,15,28.9,20.7
	c9.1,9.5,9.1,49.2,9.1,49.2H56.5z"/>
<path class="st0" d="M59.6,245.8c0,0,1-34.2,4.3-41.7c2.9-10.4,27.8-19.3,34.3-23.8c5.6-4.3,7.9-6.1,5-11.1c0,0-10-17-10-30.9
	s-2.7-28.3,26.3-28.3s25,15,25,27.9c0,13-11.6,29.8-11.6,29.8c-4,7-2.1,8.9,4.8,11.7c8.1,3.2,22.7,14.2,27.4,19.7
	c8.6,9,8.6,46.7,8.6,46.7H59.6z"/>
</svg>
