<?xml version="1.0" encoding="utf-8"?>
<!-- Generator: Adobe Illustrator 26.0.0, SVG Export Plug-In . SVG Version: 6.00 Build 0)  -->
<svg version="1.1" id="Laag_1" xmlns="http://www.w3.org/2000/svg" xmlns:xlink="http://www.w3.org/1999/xlink" x="0px" y="0px"
	 viewBox="0 0 210.2 223" style="enable-background:new 0 0 210.2 223;" xml:space="preserve">
<style type="text/css">
	.st0{fill:#111124;stroke:#111124;stroke-width:3;stroke-miterlimit:10;}
	.st1{fill:#FFFFFF;stroke:#111124;stroke-width:3;stroke-miterlimit:10;}
	.st2{fill:#BEBDBE;}
	.st3{fill:#EF9C31;}
	.st4{fill:#DDE5EB;}
</style>
<path class="st0" d="M35.9,223V18.7c0-6.2,5.1-11.3,11.3-11.3h129.1c6.2,0,11.3,5.1,11.3,11.3V223"/>
<path class="st1" d="M54.2,223V52c0-5.9,5.1-10.8,11.3-10.8h92.6c6.2,0,11.3,4.9,11.3,10.8v171"/>
<path class="st2" d="M151.1,203.2h-14.3c-3.3,0-5.9-2.7-5.9-5.9V183c0-3.3,2.7-5.9,5.9-5.9h14.3c3.3,0,5.9,2.7,5.9,5.9v14.3
	C157.1,200.6,154.4,203.2,151.1,203.2z"/>
<path class="st2" d="M119.4,203.2h-14.3c-3.3,0-5.9-2.7-5.9-5.9V183c0-3.3,2.7-5.9,5.9-5.9h14.3c3.3,0,5.9,2.7,5.9,5.9v14.3
	C125.3,200.6,122.7,203.2,119.4,203.2z"/>
<path class="st2" d="M86.8,203.2H72.5c-3.3,0-5.9-2.7-5.9-5.9V183c0-3.3,2.7-5.9,5.9-5.9h14.3c3.3,0,5.9,2.7,5.9,5.9v14.3
	C92.7,200.6,90.1,203.2,86.8,203.2z"/>
<path class="st3" d="M151.1,165.9h-14.3c-3.3,0-5.9-2.7-5.9-5.9v-14.3c0-3.3,2.7-5.9,5.9-5.9h14.3c3.3,0,5.9,2.7,5.9,5.9V160
	C157.1,163.2,154.4,165.9,151.1,165.9z"/>
<path class="st2" d="M119.4,165.9h-14.3c-3.3,0-5.9-2.7-5.9-5.9v-14.3c0-3.3,2.7-5.9,5.9-5.9h14.3c3.3,0,5.9,2.7,5.9,5.9V160
	C125.3,163.2,122.7,165.9,119.4,165.9z"/>
<path class="st2" d="M86.8,165.9H72.5c-3.3,0-5.9-2.7-5.9-5.9v-14.3c0-3.3,2.7-5.9,5.9-5.9h14.3c3.3,0,5.9,2.7,5.9,5.9V160
	C92.7,163.2,90.1,165.9,86.8,165.9z"/>
<path class="st2" d="M151.1,130.3h-14.3c-3.3,0-5.9-2.7-5.9-5.9v-14.3c0-3.3,2.7-5.9,5.9-5.9h14.3c3.3,0,5.9,2.7,5.9,5.9v14.3
	C157.1,127.7,154.4,130.3,151.1,130.3z"/>
<path class="st2" d="M119.4,130.3h-14.3c-3.3,0-5.9-2.7-5.9-5.9v-14.3c0-3.3,2.7-5.9,5.9-5.9h14.3c3.3,0,5.9,2.7,5.9,5.9v14.3
	C125.3,127.7,122.7,130.3,119.4,130.3z"/>
<path class="st2" d="M86.8,130.3H72.5c-3.3,0-5.9-2.7-5.9-5.9v-14.3c0-3.3,2.7-5.9,5.9-5.9h14.3c3.3,0,5.9,2.7,5.9,5.9v14.3
	C92.7,127.7,90.1,130.3,86.8,130.3z"/>
<path class="st2" d="M151.1,94.8h-14.3c-3.3,0-5.9-2.7-5.9-5.9V74.6c0-3.3,2.7-5.9,5.9-5.9h14.3c3.3,0,5.9,2.7,5.9,5.9v14.3
	C157.1,92.1,154.4,94.8,151.1,94.8z"/>
<path class="st2" d="M119.4,94.8h-14.3c-3.3,0-5.9-2.7-5.9-5.9V74.6c0-3.3,2.7-5.9,5.9-5.9h14.3c3.3,0,5.9,2.7,5.9,5.9v14.3
	C125.3,92.1,122.7,94.8,119.4,94.8z"/>
<path class="st2" d="M86.8,94.8H72.5c-3.3,0-5.9-2.7-5.9-5.9V74.6c0-3.3,2.7-5.9,5.9-5.9h14.3c3.3,0,5.9,2.7,5.9,5.9v14.3
	C92.7,92.1,90.1,94.8,86.8,94.8z"/>
<g>
	<g>
		<g>
			<path class="st4" d="M84.4,27c3.2,0,3.2-5,0-5C81.2,22,81.2,27,84.4,27L84.4,27z"/>
		</g>
	</g>
	<g>
		<g>
			<path class="st4" d="M99.4,26.4c13.3,0,26.6,0,39.9,0c3.2,0,3.2-5,0-5c-13.3,0-26.6,0-39.9,0C96.2,21.4,96.2,26.4,99.4,26.4
				L99.4,26.4z"/>
		</g>
	</g>
</g>
</svg>
