<?xml version="1.0" encoding="utf-8"?>
<!-- Generator: Adobe Illustrator 26.0.0, SVG Export Plug-In . SVG Version: 6.00 Build 0)  -->
<svg version="1.1" id="Laag_1" xmlns="http://www.w3.org/2000/svg" xmlns:xlink="http://www.w3.org/1999/xlink" x="0px" y="0px"
	 viewBox="0 0 215.5 262" style="enable-background:new 0 0 215.5 262;" xml:space="preserve">
<style type="text/css">
	.st0{fill:none;stroke:#111124;stroke-width:3;stroke-miterlimit:10;}
	.st1{fill:#DDE5EB;}
	.st2{fill:#EF9C31;}
	.st3{fill:#111124;}
</style>
<path class="st0" d="M35.9,244.3V39.9c0-6.2,5.1-11.3,11.3-11.3h129.1c6.2,0,11.3,5.1,11.3,11.3v204.4"/>
<path class="st0" d="M54.2,244.3v-171c0-5.9,5.1-10.8,11.3-10.8h92.6c6.2,0,11.3,4.9,11.3,10.8v171"/>
<path class="st1" d="M151.1,224.5h-14.3c-3.3,0-5.9-2.7-5.9-5.9v-14.3c0-3.3,2.7-5.9,5.9-5.9h14.3c3.3,0,5.9,2.7,5.9,5.9v14.3
	C157.1,221.8,154.4,224.5,151.1,224.5z"/>
<path class="st1" d="M119.4,224.5h-14.3c-3.3,0-5.9-2.7-5.9-5.9v-14.3c0-3.3,2.7-5.9,5.9-5.9h14.3c3.3,0,5.9,2.7,5.9,5.9v14.3
	C125.3,221.8,122.7,224.5,119.4,224.5z"/>
<path class="st1" d="M86.8,224.5H72.5c-3.3,0-5.9-2.7-5.9-5.9v-14.3c0-3.3,2.7-5.9,5.9-5.9h14.3c3.3,0,5.9,2.7,5.9,5.9v14.3
	C92.7,221.8,90.1,224.5,86.8,224.5z"/>
<path class="st2" d="M151.1,187.2h-14.3c-3.3,0-5.9-2.7-5.9-5.9V167c0-3.3,2.7-5.9,5.9-5.9h14.3c3.3,0,5.9,2.7,5.9,5.9v14.3
	C157.1,184.5,154.4,187.2,151.1,187.2z"/>
<path class="st1" d="M119.4,187.2h-14.3c-3.3,0-5.9-2.7-5.9-5.9V167c0-3.3,2.7-5.9,5.9-5.9h14.3c3.3,0,5.9,2.7,5.9,5.9v14.3
	C125.3,184.5,122.7,187.2,119.4,187.2z"/>
<path class="st1" d="M86.8,187.2H72.5c-3.3,0-5.9-2.7-5.9-5.9V167c0-3.3,2.7-5.9,5.9-5.9h14.3c3.3,0,5.9,2.7,5.9,5.9v14.3
	C92.7,184.5,90.1,187.2,86.8,187.2z"/>
<path class="st1" d="M151.1,151.6h-14.3c-3.3,0-5.9-2.7-5.9-5.9v-14.3c0-3.3,2.7-5.9,5.9-5.9h14.3c3.3,0,5.9,2.7,5.9,5.9v14.3
	C157.1,149,154.4,151.6,151.1,151.6z"/>
<path class="st1" d="M119.4,151.6h-14.3c-3.3,0-5.9-2.7-5.9-5.9v-14.3c0-3.3,2.7-5.9,5.9-5.9h14.3c3.3,0,5.9,2.7,5.9,5.9v14.3
	C125.3,149,122.7,151.6,119.4,151.6z"/>
<path class="st1" d="M86.8,151.6H72.5c-3.3,0-5.9-2.7-5.9-5.9v-14.3c0-3.3,2.7-5.9,5.9-5.9h14.3c3.3,0,5.9,2.7,5.9,5.9v14.3
	C92.7,149,90.1,151.6,86.8,151.6z"/>
<path class="st1" d="M151.1,116.1h-14.3c-3.3,0-5.9-2.7-5.9-5.9V95.9c0-3.3,2.7-5.9,5.9-5.9h14.3c3.3,0,5.9,2.7,5.9,5.9v14.3
	C157.1,113.4,154.4,116.1,151.1,116.1z"/>
<path class="st1" d="M119.4,116.1h-14.3c-3.3,0-5.9-2.7-5.9-5.9V95.9c0-3.3,2.7-5.9,5.9-5.9h14.3c3.3,0,5.9,2.7,5.9,5.9v14.3
	C125.3,113.4,122.7,116.1,119.4,116.1z"/>
<path class="st1" d="M86.8,116.1H72.5c-3.3,0-5.9-2.7-5.9-5.9V95.9c0-3.3,2.7-5.9,5.9-5.9h14.3c3.3,0,5.9,2.7,5.9,5.9v14.3
	C92.7,113.4,90.1,116.1,86.8,116.1z"/>
<g>
	<g>
		<g>
			<path class="st3" d="M84.4,48.3c3.2,0,3.2-5,0-5C81.2,43.3,81.2,48.3,84.4,48.3L84.4,48.3z"/>
		</g>
	</g>
	<g>
		<g>
			<path class="st3" d="M99.4,47.7c13.3,0,26.6,0,39.9,0c3.2,0,3.2-5,0-5c-13.3,0-26.6,0-39.9,0C96.2,42.7,96.2,47.7,99.4,47.7
				L99.4,47.7z"/>
		</g>
	</g>
</g>
</svg>
