<?xml version="1.0" encoding="utf-8"?>
<!-- Generator: Adobe Illustrator 26.0.0, SVG Export Plug-In . SVG Version: 6.00 Build 0)  -->
<svg version="1.1" id="Laag_1" xmlns="http://www.w3.org/2000/svg" xmlns:xlink="http://www.w3.org/1999/xlink" x="0px" y="0px"
	 viewBox="0 0 262.4 182.6" style="enable-background:new 0 0 262.4 182.6;" xml:space="preserve">
<style type="text/css">
	.st0{fill:#CFCECE;stroke:#111124;stroke-miterlimit:10;}
	.st1{fill:#111124;}
	.st2{fill:none;stroke:#111124;stroke-width:2;stroke-miterlimit:10;}
	.st3{fill:none;stroke:#9C9B9B;stroke-width:2;stroke-miterlimit:10;}
</style>
<path class="st0" d="M91.4,93H51.7c-1.9,0-3.4-1.5-3.4-3.4V46c0-1.9,1.5-3.4,3.4-3.4h39.7c1.9,0,3.4,1.5,3.4,3.4v43.6
	C94.8,91.5,93.2,93,91.4,93z"/>
<path class="st1" d="M52.4,93c0,0,0.3-11.3,1.4-13.8c0.9-3.4,9.2-6.4,11.3-7.8c1.9-1.4,2.6-2,1.6-3.7c0,0-3.3-5.6-3.3-10.2
	s-0.9-9.3,8.7-9.3s8.3,4.9,8.3,9.2s-3.8,9.8-3.8,9.8c-1.3,2.3-0.7,2.9,1.6,3.9c2.7,1,7.5,4.7,9,6.5C90,80.6,90,93,90,93H52.4z"/>
<path class="st2" d="M209.8,148.3H49.6c-6.2,0-11.3-5.1-11.3-11.3V47.9c0-6.2,5.1-11.3,11.3-11.3h160.2c6.2,0,11.3,5.1,11.3,11.3
	V137C221.2,143.2,216,148.3,209.8,148.3z"/>
<line class="st2" x1="103.8" y1="54.2" x2="126.7" y2="54.2"/>
<line class="st3" x1="103.8" y1="59.4" x2="150.6" y2="59.4"/>
<line class="st2" x1="103.8" y1="69.3" x2="126.7" y2="69.3"/>
<line class="st3" x1="103.8" y1="74.5" x2="150.6" y2="74.5"/>
<line class="st3" x1="103.8" y1="91.5" x2="150.6" y2="91.5"/>
<line class="st2" x1="103.8" y1="85.2" x2="126.7" y2="85.2"/>
<line class="st2" x1="50.5" y1="108.6" x2="203.9" y2="108.6"/>
<line class="st2" x1="50.5" y1="118.1" x2="203.9" y2="118.1"/>
<line class="st2" x1="50" y1="127.7" x2="203.4" y2="127.7"/>
<line class="st2" x1="50" y1="137.3" x2="203.4" y2="137.3"/>
</svg>
