<?xml version="1.0" encoding="utf-8"?>
<!-- Generator: Adobe Illustrator 26.0.0, SVG Export Plug-In . SVG Version: 6.00 Build 0)  -->
<svg version="1.1" id="Laag_1" xmlns="http://www.w3.org/2000/svg" xmlns:xlink="http://www.w3.org/1999/xlink" x="0px" y="0px"
	 viewBox="0 0 285.3 216.5" style="enable-background:new 0 0 285.3 216.5;" xml:space="preserve">
<style type="text/css">
	.st0{fill:#111124;}
	.st1{fill:#4A494A;}
	.st2{fill:#FFFFFF;}
	.st3{fill:#DDE5EB;}
	.st4{fill:#BEBDBE;}
	.st5{fill:#005FAB;}
	.st6{fill:#EF9C31;}
	.st7{fill:#A02224;}
	.st8{fill:#008B3F;}
</style>
<g>
	<path class="st0" d="M159.1,63.2c10.4-5.9,22.1-11,34.4-12.6c45.8-4.3,72,119.3,32.7,127c-9.9,0.9-26.3-15-43.9-33.8h-69
		c-17.5,23.4-33.7,38.5-46.7,32.9c-35.5-13.5-6.7-130.1,40-126.2c10.1,0,22,7.3,33.4,12.6L159.1,63.2z"/>
	<path class="st1" d="M72.5,179.2c-2.2,0-4.3-0.4-6.4-1.3c-17.8-6.8-19.5-37-13.4-64c7.5-32.7,27.4-67,54-64.7c0,0,0,0,0,0
		c8.2,0,17.6,4.7,26.8,9.3c2.3,1.1,4.5,2.3,6.8,3.3h18.5c12.5-7.1,23.8-11.2,34.5-12.6c12.5-1.2,24.3,6.4,34.3,22
		c8.6,13.4,15,31.7,17.7,50.2c4.6,31.7-2.9,54.2-18.9,57.3c-10.2,0.9-25.1-12.8-44.7-33.7h-67.8C96.5,168.3,83.4,179.2,72.5,179.2z
		 M104.7,51.8c-17.3,0-39.5,19.2-49.4,62.8c-8.2,35.9,0,56.4,11.8,60.9c10.8,4.7,25.1-5.6,45.1-32.5l0.4-0.5h70.2l0.4,0.4
		c16.6,17.8,33.3,34.2,42.8,33.3c17.6-3.5,20-31.5,16.7-54.4c-5.2-36.2-25.1-72.3-49.2-70c-10.5,1.4-21.5,5.5-33.8,12.5l-0.3,0.2
		l-20-0.1c-2.4-1.1-4.7-2.3-7.1-3.5c-8.8-4.4-18-9-25.7-9C106,51.8,105.4,51.8,104.7,51.8z"/>
</g>
<g>
	<circle class="st2" cx="105.1" cy="98.5" r="29"/>
	<path class="st3" d="M105.1,128.8c-16.7,0-30.3-13.6-30.3-30.3s13.6-30.3,30.3-30.3c16.7,0,30.3,13.6,30.3,30.3
		S121.8,128.8,105.1,128.8z M105.1,70.9c-15.3,0-27.7,12.4-27.7,27.7s12.4,27.7,27.7,27.7s27.7-12.4,27.7-27.7
		S120.3,70.9,105.1,70.9z"/>
</g>
<g>
	<g>
		<g>
			<path class="st4" d="M98.5,84c0,9.6,0,19.2,0,28.8c0,3.4,3,6.7,6.6,6.6c3.6-0.2,6.6-2.9,6.6-6.6c0-9.6,0-19.2,0-28.8
				c0-3.4-3-6.7-6.6-6.6C101.5,77.6,98.5,80.4,98.5,84L98.5,84z"/>
		</g>
	</g>
	<g>
		<g>
			<path class="st4" d="M90.4,105c9.8,0,19.6,0,29.5,0c3.4,0,6.7-3,6.6-6.6c-0.2-3.6-2.9-6.6-6.6-6.6c-9.8,0-19.6,0-29.5,0
				c-3.4,0-6.7,3-6.6,6.6C84,102,86.7,105,90.4,105L90.4,105z"/>
		</g>
	</g>
</g>
<g>
	<g>
		<circle class="st2" cx="191.3" cy="98.5" r="29"/>
		<path class="st3" d="M191.3,128.8c-16.7,0-30.3-13.6-30.3-30.3s13.6-30.3,30.3-30.3c16.7,0,30.3,13.6,30.3,30.3
			S208,128.8,191.3,128.8z M191.3,70.9c-15.3,0-27.7,12.4-27.7,27.7s12.4,27.7,27.7,27.7c15.3,0,27.7-12.4,27.7-27.7
			S206.5,70.9,191.3,70.9z"/>
	</g>
	<g>
		<g>
			<g>
				<path class="st5" d="M190.5,90.4c8.4,0,8.5-13.1,0-13.1C182.1,77.3,182.1,90.4,190.5,90.4L190.5,90.4z"/>
			</g>
		</g>
		<g>
			<g>
				<path class="st6" d="M191.2,119.6c8.4,0,8.5-13.1,0-13.1C182.7,106.5,182.7,119.6,191.2,119.6L191.2,119.6z"/>
			</g>
		</g>
		<g>
			<g>
				<path class="st7" d="M205.6,105.2c8.4,0,8.5-13.1,0-13.1C197.1,92.1,197.1,105.2,205.6,105.2L205.6,105.2z"/>
			</g>
		</g>
		<g>
			<g>
				<path class="st8" d="M177,105.2c8.4,0,8.5-13.1,0-13.1C168.5,92.1,168.5,105.2,177,105.2L177,105.2z"/>
			</g>
		</g>
	</g>
</g>
</svg>
