<?xml version="1.0" encoding="utf-8"?>
<!-- Generator: Adobe Illustrator 26.0.0, SVG Export Plug-In . SVG Version: 6.00 Build 0)  -->
<svg version="1.1" id="Laag_1" xmlns="http://www.w3.org/2000/svg" xmlns:xlink="http://www.w3.org/1999/xlink" x="0px" y="0px"
	 viewBox="0 0 285.3 216.5" style="enable-background:new 0 0 285.3 216.5;" xml:space="preserve">
<style type="text/css">
	.st0{fill:#111124;}
	.st1{fill:#FFFFFF;}
	.st2{fill:#4A494A;}
	.st3{fill:#7F7F80;}
	.st4{fill:#005FAB;}
	.st5{fill:#EF9C31;}
	.st6{fill:#A02224;}
	.st7{fill:#008B3F;}
</style>
<path class="st0" d="M67.5,181.6c-2.2,0-4.3-0.4-6.4-1.3c-17.8-6.8-19.5-37-13.4-64c7.5-32.7,27.4-67,54-64.7l0,0
	c8.2,0,17.6,4.7,26.8,9.3c2.3,1.1,4.5,2.3,6.8,3.3h18.5c12.5-7.1,23.8-11.2,34.5-12.6c12.5-1.2,24.3,6.4,34.3,22
	c8.6,13.4,15,31.7,17.7,50.2c4.6,31.7-2.9,54.2-18.9,57.3c-10.2,0.9-25.1-12.8-44.7-33.7H109C91.5,170.7,78.4,181.6,67.5,181.6z
	 M99.7,54.1c-17.3,0-39.5,19.2-49.4,62.8c-8.2,35.9,0,56.4,11.8,60.9c10.8,4.7,25.1-5.6,45.1-32.5l0.4-0.5h70.2l0.4,0.4
	c16.6,17.8,33.3,34.2,42.8,33.3c17.6-3.5,20-31.5,16.7-54.4c-5.2-36.2-25.1-72.3-49.2-70c-10.5,1.4-21.5,5.5-33.8,12.5l-0.3,0.2
	l-20-0.1c-2.4-1.1-4.7-2.3-7.1-3.5c-8.8-4.4-18-9-25.7-9C101,54.1,100.4,54.1,99.7,54.1z"/>
<ellipse transform="matrix(8.248051e-02 -0.9966 0.9966 8.248051e-02 -8.7125 192.3366)" class="st1" cx="100.1" cy="100.9" rx="29" ry="29"/>
<path class="st2" d="M100.1,131.1c-16.7,0-30.3-13.6-30.3-30.3s13.6-30.3,30.3-30.3s30.3,13.6,30.3,30.3S116.8,131.1,100.1,131.1z
	 M100.1,73.2c-15.3,0-27.7,12.4-27.7,27.7s12.4,27.7,27.7,27.7s27.7-12.4,27.7-27.7S115.4,73.2,100.1,73.2z"/>
<g>
	<g>
		<path class="st3" d="M93.5,86.4c0,9.6,0,19.2,0,28.8c0,3.4,3,6.7,6.6,6.6c3.6-0.2,6.6-2.9,6.6-6.6c0-9.6,0-19.2,0-28.8
			c0-3.4-3-6.7-6.6-6.6C96.5,80,93.5,82.7,93.5,86.4L93.5,86.4z"/>
	</g>
</g>
<g>
	<g>
		<path class="st3" d="M85.4,107.3c9.8,0,19.6,0,29.5,0c3.4,0,6.7-3,6.6-6.6c-0.2-3.6-2.9-6.6-6.6-6.6c-9.8,0-19.6,0-29.5,0
			c-3.4,0-6.7,3-6.6,6.6C79,104.3,81.7,107.3,85.4,107.3L85.4,107.3z"/>
	</g>
</g>
<circle class="st1" cx="186.3" cy="100.9" r="29"/>
<g>
	<g>
		<g>
			<path class="st4" d="M185.5,92.7c8.4,0,8.5-13.1,0-13.1C177.1,79.6,177.1,92.7,185.5,92.7L185.5,92.7z"/>
		</g>
	</g>
	<g>
		<g>
			<path class="st5" d="M186.2,122c8.4,0,8.5-13.1,0-13.1C177.7,108.8,177.7,122,186.2,122L186.2,122z"/>
		</g>
	</g>
	<g>
		<g>
			<path class="st6" d="M200.6,107.6c8.4,0,8.5-13.1,0-13.1C192.1,94.4,192.1,107.6,200.6,107.6L200.6,107.6z"/>
		</g>
	</g>
	<g>
		<g>
			<path class="st7" d="M172,107.6c8.4,0,8.5-13.1,0-13.1C163.5,94.4,163.5,107.6,172,107.6L172,107.6z"/>
		</g>
	</g>
</g>
<path class="st2" d="M186.3,131.1c-16.7,0-30.3-13.6-30.3-30.3s13.6-30.3,30.3-30.3s30.3,13.6,30.3,30.3S203,131.1,186.3,131.1z
	 M186.3,73.2c-15.3,0-27.7,12.4-27.7,27.7s12.4,27.7,27.7,27.7s27.7-12.4,27.7-27.7S201.5,73.2,186.3,73.2z"/>
</svg>
