<?xml version="1.0" encoding="utf-8"?>
<!-- Generator: Adobe Illustrator 26.0.0, SVG Export Plug-In . SVG Version: 6.00 Build 0)  -->
<svg version="1.1" id="Laag_1" xmlns="http://www.w3.org/2000/svg" xmlns:xlink="http://www.w3.org/1999/xlink" x="0px" y="0px"
	 viewBox="0 0 210.2 223" style="enable-background:new 0 0 210.2 223;" xml:space="preserve">
<style type="text/css">
	.st0{fill:#111124;stroke:#111124;stroke-width:3;stroke-miterlimit:10;}
	.st1{fill:#111124;stroke:#111124;stroke-width:3;stroke-linecap:round;stroke-linejoin:round;stroke-miterlimit:10;}
	.st2{fill:#FFFFFF;stroke:#111124;stroke-width:3;stroke-miterlimit:10;}
	.st3{fill:#008B3F;}
	.st4{fill:#EF9C31;}
	.st5{fill:#A02224;}
	.st6{fill:none;stroke:#FFFFFF;stroke-width:2;stroke-linecap:round;stroke-linejoin:round;stroke-miterlimit:10;}
	.st7{fill:#DDE5EB;}
	.st8{fill:none;stroke:#000000;stroke-miterlimit:10;}
</style>
<path class="st0" d="M176.6,159.7h-139c-6.2,0-11.3-5.1-11.3-11.3V60c0-6.2,5.1-11.3,11.3-11.3h139c6.2,0,11.3,5.1,11.3,11.3v88.4
	C188,154.6,182.9,159.7,176.6,159.7z"/>
<path class="st1" d="M96.4,159.7c0,0,3.8,14.3-2.2,18.6c-6.1,4.4-38.6,8-38.6,8h103.2c0,0-35.1-3-40.2-8.2c-5-5.2-2.2-18.5-2.2-18.5
	H96.4z"/>
<path class="st2" d="M168.5,152.4H45.9c-6.2,0-11.3-5.1-11.3-11.3V67.2c0-6.2,5.1-11.3,11.3-11.3h122.5c6.2,0,11.3,5.1,11.3,11.3
	v73.8C179.8,147.3,174.7,152.4,168.5,152.4z"/>
<circle class="st3" cx="42.9" cy="62.3" r="1.4"/>
<circle class="st4" cx="48.4" cy="62.3" r="1.4"/>
<circle class="st5" cx="53.8" cy="62.3" r="1.4"/>
<path class="st0" d="M156.3,123.2H58c-4,0-7.3-3.3-7.3-7.3V99.1c0-4,3.3-7.3,7.3-7.3h98.3c4,0,7.3,3.3,7.3,7.3v16.8
	C163.6,119.9,160.3,123.2,156.3,123.2z"/>
<polyline class="st6" points="68.7,102.1 58.9,108.2 68.7,114.1 "/>
<polyline class="st6" points="146,102.1 155.5,108.2 146,114.1 "/>
<rect x="69.7" y="74" class="st7" width="75.2" height="11.6"/>
<line class="st8" x1="34.6" y1="68" x2="179.8" y2="68"/>
<line class="st8" x1="53.9" y1="132.1" x2="160.1" y2="132.1"/>
<line class="st8" x1="53.9" y1="141.9" x2="160.1" y2="141.9"/>
</svg>
