<?xml version="1.0" encoding="utf-8"?>
<!-- Generator: Adobe Illustrator 26.0.0, SVG Export Plug-In . SVG Version: 6.00 Build 0)  -->
<svg version="1.1" id="Laag_1" xmlns="http://www.w3.org/2000/svg" xmlns:xlink="http://www.w3.org/1999/xlink" x="0px" y="0px"
	 viewBox="0 0 210.2 223" style="enable-background:new 0 0 210.2 223;" xml:space="preserve">
<style type="text/css">
	.st0{fill:none;stroke:#111124;stroke-width:2;stroke-miterlimit:10;}
	.st1{fill:none;stroke:#111124;stroke-miterlimit:10;}
	.st2{fill:#008B3F;}
	.st3{fill:#EF9C31;}
	.st4{fill:#A02224;}
	.st5{fill:none;stroke:#000000;stroke-miterlimit:10;}
	.st6{fill:#DDE5EB;}
	.st7{fill:none;stroke:#BEBDBE;stroke-width:2;stroke-miterlimit:10;}
	.st8{fill:none;stroke:#111124;stroke-width:2;stroke-linecap:round;stroke-linejoin:round;stroke-miterlimit:10;}
</style>
<path class="st0" d="M175.3,150.4h-139c-6.2,0-11.3-5.1-11.3-11.3V50.7c0-6.2,5.1-11.3,11.3-11.3h139c6.2,0,11.3,5.1,11.3,11.3V139
	C186.6,145.3,181.5,150.4,175.3,150.4z"/>
<path class="st1" d="M167.1,143.1H44.6c-6.2,0-11.3-5.1-11.3-11.3V57.9c0-6.2,5.1-11.3,11.3-11.3h122.5c6.2,0,11.3,5.1,11.3,11.3
	v73.8C178.5,138,173.4,143.1,167.1,143.1z"/>
<circle class="st2" cx="41.6" cy="53" r="1.4"/>
<circle class="st3" cx="47" cy="53" r="1.4"/>
<circle class="st4" cx="52.4" cy="53" r="1.4"/>
<path class="st3" d="M154.8,113.8h-98c-4.1,0-7.5-3.3-7.5-7.5V89.9c0-4.1,3.3-7.5,7.5-7.5h98c4.1,0,7.5,3.3,7.5,7.5v16.5
	C162.3,110.5,158.9,113.8,154.8,113.8z"/>
<polyline class="st5" points="67.3,92.8 57.5,98.9 67.3,104.8 "/>
<polyline class="st5" points="144.7,92.8 154.1,98.9 144.7,104.8 "/>
<rect x="68.3" y="64.7" class="st6" width="75.2" height="11.6"/>
<line class="st1" x1="33.3" y1="58.7" x2="178.5" y2="58.7"/>
<line class="st7" x1="52.5" y1="122.8" x2="158.7" y2="122.8"/>
<line class="st1" x1="74.3" y1="70.5" x2="137.9" y2="70.5"/>
<line class="st7" x1="52.5" y1="132.6" x2="158.7" y2="132.6"/>
<path class="st8" d="M95,150.4c0,0,3.8,14.3-2.2,18.6c-6.1,4.4-38.6,8-38.6,8h103.2c0,0-35.1-3-40.2-8.2c-5-5.2-2.2-18.5-2.2-18.5
	L95,150.4L95,150.4z"/>
</svg>
